<svg xmlns="http://www.w3.org/2000/svg" xmlns:xlink="http://www.w3.org/1999/xlink" version="1.1" x="0px" y="0px" viewBox="0 0 100 125" enable-background="new 0 0 100 100" xml:space="preserve"><path d="M85.8,77.992L51.998,19.451c-0.415-0.718-1.181-1.161-2.01-1.16c-0.829,0-1.595,0.442-2.01,1.16L14.043,78.229  c-0.414,0.719-0.414,1.604,0,2.32c0.415,0.719,1.181,1.16,2.01,1.16h67.874c0.008,0,0.015,0,0.02,0c1.282,0,2.321-1.039,2.321-2.32  C86.268,78.863,86.093,78.381,85.8,77.992z M52.988,68.439c0,1.656-1.343,3-3,3c-1.657,0-3-1.344-3-3V68.16c0-1.658,1.343-3,3-3  c1.658,0,3,1.342,3,3V68.439z M52.988,58.957c0,1.656-1.343,3-3,3c-1.657,0-3-1.344-3-3V40.816c0-1.657,1.343-3,3-3  c1.658,0,3,1.343,3,3V58.957z"/><text x="0" y="115" fill="#000000" font-size="5px" font-weight="bold" font-family="'Helvetica Neue', Helvetica, Arial-Unicode, Arial, Sans-serif">Created by Chunk Icons</text><text x="0" y="120" fill="#000000" font-size="5px" font-weight="bold" font-family="'Helvetica Neue', Helvetica, Arial-Unicode, Arial, Sans-serif">from the Noun Project</text></svg>