<?xml version="1.0" encoding="iso-8859-1"?>
<!-- Generator: Adobe Illustrator 16.0.0, SVG Export Plug-In . SVG Version: 6.00 Build 0)  -->
<!DOCTYPE svg PUBLIC "-//W3C//DTD SVG 1.1//EN" "http://www.w3.org/Graphics/SVG/1.1/DTD/svg11.dtd">
<svg xmlns="http://www.w3.org/2000/svg" xmlns:xlink="http://www.w3.org/1999/xlink" version="1.1" id="Capa_1" x="0px" y="0px" width="512px" height="512px" viewBox="0 0 92.595 92.595" style="enable-background:new 0 0 92.595 92.595;" xml:space="preserve">
<g>
	<path d="M84.634,34.228c-0.698-23.037-26.337-13.136-26.337-13.136c8.113,0,17.682,8.5,17.682,8.5   c-23.667-4.637-27.705,6.956-27.705,6.956l10.023-2.32c6.882-1.556,10.875-0.332,13.062,2.303   c-5.996,2.95-14.161,9.851-19.876,25.832c-6.899-23.221-17.903-32.764-25.802-36.646c2.642-3.179,7.478-4.667,15.804-2.782   l12.123,2.803c0,0-4.887-14.021-33.513-8.41c0,0,11.579-10.285,21.39-10.285c0,0-31.014-11.975-31.86,15.892   c0,0-21.657,24.295,0,33.656c0,0-4.682-19.979,6.149-25.242c0,0-0.592,25.242,12.325,25.242c0.123,0.29-7.664-17.147-4.331-27.332   c25.559,24.556,16.315,58.853,16.315,58.853h5.788h10.646h2.942c0,0-7.638-28.359,13.49-48.658   c2.752,8.42-3.683,22.841-3.583,22.595c10.684,0,10.191-20.867,10.191-20.867c8.956,4.351,5.078,20.867,5.078,20.867   C102.545,54.313,84.634,34.228,84.634,34.228z" fill="#373d42"/>
</g>
<g>
</g>
<g>
</g>
<g>
</g>
<g>
</g>
<g>
</g>
<g>
</g>
<g>
</g>
<g>
</g>
<g>
</g>
<g>
</g>
<g>
</g>
<g>
</g>
<g>
</g>
<g>
</g>
<g>
</g>
</svg>
