<svg xmlns="http://www.w3.org/2000/svg" viewBox="0 0 862.49 492.68"><defs><style>.cls-1{isolation:isolate;}.cls-2{opacity:0.4;}.cls-3{mix-blend-mode:overlay;}.cls-4{fill:#fff;}.cls-5{opacity:0.6;}</style></defs><title>bg_form</title><g class="cls-1"><g id="Слой_2" data-name="Слой 2"><g id="Layer_2" data-name="Layer 2"><g class="cls-2"><g class="cls-3"><polygon class="cls-4" points="862.49 122.58 711.55 151.13 711.68 151.84 862.49 123.31 862.49 122.58"/><polygon class="cls-4" points="862.49 122.58 711.55 151.13 711.68 151.84 862.49 123.31 862.49 122.58"/><polygon class="cls-4" points="862.49 60.26 711.44 151.17 711.79 151.79 862.49 61.08 862.49 60.26"/><polygon class="cls-4" points="862.49 60.26 711.44 151.17 711.79 151.79 862.49 61.08 862.49 60.26"/><polygon class="cls-4" points="249.75 315.29 81.9 82.21 82.45 81.78 250.3 314.87 249.75 315.29"/><polygon class="cls-4" points="0 108.91 82.28 82.33 82.07 81.65 0 108.16 0 108.91"/><polygon class="cls-4" points="0 123.72 82.32 82.31 82.02 81.67 0 122.93 0 123.72"/><polygon class="cls-4" points="75.34 84.44 75.15 83.75 82.08 81.65 82.27 82.33 75.34 84.44"/><polygon class="cls-4" points="249.75 315.3 74.97 84.32 75.52 83.88 250.3 314.86 249.75 315.3"/><polygon class="cls-4" points="0 108.82 75.35 84.44 75.14 83.75 0 108.08 0 108.82"/><polygon class="cls-4" points="0 122.71 75.4 84.42 75.09 83.78 0 121.91 0 122.71"/><polygon class="cls-4" points="248.89 405.02 74.94 84.27 75.55 83.92 249.49 404.67 248.89 405.02"/><polygon class="cls-4" points="248.88 405.01 81.87 82.16 82.48 81.82 249.49 404.68 248.88 405.01"/><rect class="cls-4" x="204.72" y="359.62" width="89.77" height="0.69" transform="translate(-112.47 606.49) rotate(-89.51)"/><polygon class="cls-4" points="711.78 151.8 711.45 151.16 854.73 72.61 855.05 73.24 711.78 151.8"/><polygon class="cls-4" points="711.78 151.8 711.45 151.16 854.73 72.61 855.05 73.24 711.78 151.8"/><polygon class="cls-4" points="249.53 404.87 248.84 404.82 267.87 87.71 268.56 87.75 249.53 404.87"/><polygon class="cls-4" points="268.21 88.09 75.24 84.45 75.25 83.74 268.22 87.37 268.21 88.09"/><polygon class="cls-4" points="268.21 88.09 82.16 82.35 82.18 81.64 268.23 87.37 268.21 88.09"/><polygon class="cls-4" points="250.37 315.11 249.68 315.05 267.87 87.7 268.56 87.76 250.37 315.11"/><polygon class="cls-4" points="481.84 377.1 267.94 87.95 268.49 87.51 482.38 376.66 481.84 377.1"/><polygon class="cls-4" points="249.23 405.2 249.15 404.49 482.07 376.52 482.15 377.24 249.23 405.2"/><polygon class="cls-4" points="482.02 377.22 249.94 315.43 250.11 314.73 482.2 376.53 482.02 377.22"/><polygon class="cls-4" points="482.35 377.14 481.87 376.62 711.38 151.22 711.85 151.74 482.35 377.14"/><polygon class="cls-4" points="482.35 377.14 481.87 376.62 711.38 151.22 711.85 151.74 482.35 377.14"/><polygon class="cls-4" points="482.45 376.94 481.77 376.82 524.62 130.3 525.3 130.43 482.45 376.94"/><polygon class="cls-4" points="524.91 130.72 268.16 88.08 268.27 87.38 525.02 130.01 524.91 130.72"/><polygon class="cls-4" points="525.02 130.72 524.9 130.01 854.83 72.57 854.95 73.28 525.02 130.72"/><polygon class="cls-4" points="250.21 315.38 249.84 314.78 524.77 130.07 525.15 130.66 250.21 315.38"/><polygon class="cls-4" points="711.58 151.84 524.92 130.72 525 130.01 711.65 151.13 711.58 151.84"/><polygon class="cls-4" points="711.58 151.84 524.92 130.72 525 130.01 711.65 151.13 711.58 151.84"/><polygon class="cls-4" points="862.49 122.3 855.23 72.87 854.54 72.98 862.49 127.05 862.49 122.3"/><polygon class="cls-4" points="862.49 330.42 711.88 151.25 711.35 151.72 862.49 331.51 862.49 330.42"/><polygon class="cls-4" points="862.49 330.42 711.88 151.25 711.35 151.72 862.49 331.51 862.49 330.42"/><polygon class="cls-4" points="174.49 486.28 174.27 485.61 482 376.54 482.22 377.22 174.49 486.28"/><polygon class="cls-4" points="174.63 486.19 174.13 485.7 248.94 404.6 249.44 405.09 174.63 486.19"/><polygon class="cls-4" points="174.69 486.09 174.06 485.79 249.71 314.93 250.34 315.23 174.69 486.09"/><polygon class="cls-4" points="0 492.68 174.39 486.3 174.37 485.58 0 491.96 0 492.68"/><polygon class="cls-4" points="0 333.56 0 334.5 174.16 486.22 174.6 485.67 0 333.56"/><polygon class="cls-4" points="0 301.32 0 302.09 249.06 405.18 249.31 404.51 0 301.32"/><polygon class="cls-4" points="0 181.76 75.52 84.32 74.97 83.87 0 180.62 0 181.76"/><polygon class="cls-4" points="0 184.92 82.44 82.22 81.91 81.76 0 183.79 0 184.92"/><polygon class="cls-4" points="0 281.48 0 282.2 249.98 315.43 250.07 314.73 0 281.48"/><polygon class="cls-4" points="862.49 382.99 726.35 415.16 726.5 415.86 862.49 383.72 862.49 382.99"/><polygon class="cls-4" points="726.14 415.72 524.68 130.57 525.24 130.16 726.7 415.29 726.14 415.72"/><polygon class="cls-4" points="726.37 415.86 482.06 377.23 482.16 376.53 726.48 415.15 726.37 415.86"/><polygon class="cls-4" points="726.75 415.64 726.1 415.37 854.56 72.8 855.21 73.06 726.75 415.64"/><polygon class="cls-4" points="862.49 196.78 726.13 415.31 726.71 415.7 862.49 198.1 862.49 196.78"/><polygon class="cls-4" points="726.08 415.53 711.27 151.5 711.96 151.46 726.77 415.48 726.08 415.53"/><polygon class="cls-4" points="726.08 415.53 711.27 151.5 711.96 151.46 726.77 415.48 726.08 415.53"/><path class="cls-4" d="M712.63,155.06a3.59,3.59,0,0,1-4.49-2.53,3.76,3.76,0,0,1,2.45-4.63,3.6,3.6,0,0,1,4.49,2.53A3.76,3.76,0,0,1,712.63,155.06Z"/><path class="cls-4" d="M712.63,155.06a3.59,3.59,0,0,1-4.49-2.53,3.76,3.76,0,0,1,2.45-4.63,3.6,3.6,0,0,1,4.49,2.53A3.76,3.76,0,0,1,712.63,155.06Z"/><path class="cls-4" d="M712.63,155.06a3.59,3.59,0,0,1-4.49-2.53,3.76,3.76,0,0,1,2.45-4.63,3.6,3.6,0,0,1,4.49,2.53A3.76,3.76,0,0,1,712.63,155.06Z"/><path class="cls-4" d="M712.63,155.06a3.59,3.59,0,0,1-4.49-2.53,3.76,3.76,0,0,1,2.45-4.63,3.6,3.6,0,0,1,4.49,2.53A3.76,3.76,0,0,1,712.63,155.06Z"/><path class="cls-4" d="M251,318.66a3.59,3.59,0,0,1-4.48-2.53A3.75,3.75,0,0,1,249,311.5a3.59,3.59,0,0,1,4.48,2.53A3.74,3.74,0,0,1,251,318.66Z"/><path class="cls-4" d="M83.19,85.58A3.6,3.6,0,0,1,78.71,83a3.76,3.76,0,0,1,2.45-4.64,3.6,3.6,0,0,1,4.48,2.53A3.75,3.75,0,0,1,83.19,85.58Z"/><path class="cls-4" d="M83.19,85.58A3.6,3.6,0,0,1,78.71,83a3.76,3.76,0,0,1,2.45-4.64,3.6,3.6,0,0,1,4.48,2.53A3.75,3.75,0,0,1,83.19,85.58Z"/><path class="cls-4" d="M83.19,85.58A3.6,3.6,0,0,1,78.71,83a3.76,3.76,0,0,1,2.45-4.64,3.6,3.6,0,0,1,4.48,2.53A3.75,3.75,0,0,1,83.19,85.58Z"/><path class="cls-4" d="M83.19,85.58A3.6,3.6,0,0,1,78.71,83a3.76,3.76,0,0,1,2.45-4.64,3.6,3.6,0,0,1,4.48,2.53A3.75,3.75,0,0,1,83.19,85.58Z"/><path class="cls-4" d="M76.26,87.68a3.6,3.6,0,0,1-4.48-2.53,3.75,3.75,0,0,1,2.45-4.63A3.59,3.59,0,0,1,78.71,83,3.75,3.75,0,0,1,76.26,87.68Z"/><path class="cls-4" d="M251,318.66a3.59,3.59,0,0,1-4.48-2.53A3.75,3.75,0,0,1,249,311.5a3.59,3.59,0,0,1,4.48,2.53A3.74,3.74,0,0,1,251,318.66Z"/><path class="cls-4" d="M76.26,87.68a3.6,3.6,0,0,1-4.48-2.53,3.75,3.75,0,0,1,2.45-4.63A3.59,3.59,0,0,1,78.71,83,3.75,3.75,0,0,1,76.26,87.68Z"/><path class="cls-4" d="M76.26,87.68a3.6,3.6,0,0,1-4.48-2.53,3.75,3.75,0,0,1,2.45-4.63A3.59,3.59,0,0,1,78.71,83,3.75,3.75,0,0,1,76.26,87.68Z"/><path class="cls-4" d="M76.26,87.68a3.6,3.6,0,0,1-4.48-2.53,3.75,3.75,0,0,1,2.45-4.63A3.59,3.59,0,0,1,78.71,83,3.75,3.75,0,0,1,76.26,87.68Z"/><path class="cls-4" d="M76.26,87.68a3.6,3.6,0,0,1-4.48-2.53,3.75,3.75,0,0,1,2.45-4.63A3.59,3.59,0,0,1,78.71,83,3.75,3.75,0,0,1,76.26,87.68Z"/><path class="cls-4" d="M250.21,408.42a3.59,3.59,0,0,1-4.49-2.53,3.76,3.76,0,0,1,2.45-4.63,3.6,3.6,0,0,1,4.48,2.53A3.75,3.75,0,0,1,250.21,408.42Z"/><path class="cls-4" d="M83.19,85.58A3.6,3.6,0,0,1,78.71,83a3.76,3.76,0,0,1,2.45-4.64,3.6,3.6,0,0,1,4.48,2.53A3.75,3.75,0,0,1,83.19,85.58Z"/><path class="cls-4" d="M250.21,408.42a3.59,3.59,0,0,1-4.49-2.53,3.76,3.76,0,0,1,2.45-4.63,3.6,3.6,0,0,1,4.48,2.53A3.75,3.75,0,0,1,250.21,408.42Z"/><path class="cls-4" d="M251,318.66a3.59,3.59,0,0,1-4.48-2.53A3.75,3.75,0,0,1,249,311.5a3.59,3.59,0,0,1,4.48,2.53A3.74,3.74,0,0,1,251,318.66Z"/><path class="cls-4" d="M250.21,408.42a3.59,3.59,0,0,1-4.49-2.53,3.76,3.76,0,0,1,2.45-4.63,3.6,3.6,0,0,1,4.48,2.53A3.75,3.75,0,0,1,250.21,408.42Z"/><path class="cls-4" d="M855.91,76.51A3.59,3.59,0,0,1,851.42,74a3.75,3.75,0,0,1,2.45-4.63,3.59,3.59,0,0,1,4.48,2.53A3.75,3.75,0,0,1,855.91,76.51Z"/><path class="cls-4" d="M855.91,76.51A3.59,3.59,0,0,1,851.42,74a3.75,3.75,0,0,1,2.45-4.63,3.59,3.59,0,0,1,4.48,2.53A3.75,3.75,0,0,1,855.91,76.51Z"/><path class="cls-4" d="M712.63,155.06a3.59,3.59,0,0,1-4.49-2.53,3.76,3.76,0,0,1,2.45-4.63,3.6,3.6,0,0,1,4.49,2.53A3.76,3.76,0,0,1,712.63,155.06Z"/><path class="cls-4" d="M855.91,76.51A3.59,3.59,0,0,1,851.42,74a3.75,3.75,0,0,1,2.45-4.63,3.59,3.59,0,0,1,4.48,2.53A3.75,3.75,0,0,1,855.91,76.51Z"/><path class="cls-4" d="M712.63,155.06a3.59,3.59,0,0,1-4.49-2.53,3.76,3.76,0,0,1,2.45-4.63,3.6,3.6,0,0,1,4.49,2.53A3.76,3.76,0,0,1,712.63,155.06Z"/><path class="cls-4" d="M855.91,76.51A3.59,3.59,0,0,1,851.42,74a3.75,3.75,0,0,1,2.45-4.63,3.59,3.59,0,0,1,4.48,2.53A3.75,3.75,0,0,1,855.91,76.51Z"/><path class="cls-4" d="M250.21,408.42a3.59,3.59,0,0,1-4.49-2.53,3.76,3.76,0,0,1,2.45-4.63,3.6,3.6,0,0,1,4.48,2.53A3.75,3.75,0,0,1,250.21,408.42Z"/><path class="cls-4" d="M269.24,91.31a3.6,3.6,0,0,1-4.48-2.53,3.76,3.76,0,0,1,2.45-4.64,3.6,3.6,0,0,1,4.48,2.53A3.75,3.75,0,0,1,269.24,91.31Z"/><path class="cls-4" d="M76.26,87.68a3.6,3.6,0,0,1-4.48-2.53,3.75,3.75,0,0,1,2.45-4.63A3.59,3.59,0,0,1,78.71,83,3.75,3.75,0,0,1,76.26,87.68Z"/><path class="cls-4" d="M269.24,91.31a3.6,3.6,0,0,1-4.48-2.53,3.76,3.76,0,0,1,2.45-4.64,3.6,3.6,0,0,1,4.48,2.53A3.75,3.75,0,0,1,269.24,91.31Z"/><path class="cls-4" d="M83.19,85.58A3.6,3.6,0,0,1,78.71,83a3.76,3.76,0,0,1,2.45-4.64,3.6,3.6,0,0,1,4.48,2.53A3.75,3.75,0,0,1,83.19,85.58Z"/><path class="cls-4" d="M269.24,91.31a3.6,3.6,0,0,1-4.48-2.53,3.76,3.76,0,0,1,2.45-4.64,3.6,3.6,0,0,1,4.48,2.53A3.75,3.75,0,0,1,269.24,91.31Z"/><path class="cls-4" d="M251,318.66a3.59,3.59,0,0,1-4.48-2.53A3.75,3.75,0,0,1,249,311.5a3.59,3.59,0,0,1,4.48,2.53A3.74,3.74,0,0,1,251,318.66Z"/><path class="cls-4" d="M269.24,91.31a3.6,3.6,0,0,1-4.48-2.53,3.76,3.76,0,0,1,2.45-4.64,3.6,3.6,0,0,1,4.48,2.53A3.75,3.75,0,0,1,269.24,91.31Z"/><path class="cls-4" d="M269.24,91.31a3.6,3.6,0,0,1-4.48-2.53,3.76,3.76,0,0,1,2.45-4.64,3.6,3.6,0,0,1,4.48,2.53A3.75,3.75,0,0,1,269.24,91.31Z"/><path class="cls-4" d="M483.13,380.46a3.59,3.59,0,0,1-4.48-2.53,3.75,3.75,0,0,1,2.45-4.63,3.59,3.59,0,0,1,4.48,2.53A3.76,3.76,0,0,1,483.13,380.46Z"/><path class="cls-4" d="M250.21,408.42a3.59,3.59,0,0,1-4.49-2.53,3.76,3.76,0,0,1,2.45-4.63,3.6,3.6,0,0,1,4.48,2.53A3.75,3.75,0,0,1,250.21,408.42Z"/><path class="cls-4" d="M483.13,380.46a3.59,3.59,0,0,1-4.48-2.53,3.75,3.75,0,0,1,2.45-4.63,3.59,3.59,0,0,1,4.48,2.53A3.76,3.76,0,0,1,483.13,380.46Z"/><path class="cls-4" d="M251,318.66a3.59,3.59,0,0,1-4.48-2.53A3.75,3.75,0,0,1,249,311.5a3.59,3.59,0,0,1,4.48,2.53A3.74,3.74,0,0,1,251,318.66Z"/><path class="cls-4" d="M483.13,380.46a3.59,3.59,0,0,1-4.48-2.53,3.75,3.75,0,0,1,2.45-4.63,3.59,3.59,0,0,1,4.48,2.53A3.76,3.76,0,0,1,483.13,380.46Z"/><path class="cls-4" d="M712.63,155.06a3.59,3.59,0,0,1-4.49-2.53,3.76,3.76,0,0,1,2.45-4.63,3.6,3.6,0,0,1,4.49,2.53A3.76,3.76,0,0,1,712.63,155.06Z"/><path class="cls-4" d="M483.13,380.46a3.59,3.59,0,0,1-4.48-2.53,3.75,3.75,0,0,1,2.45-4.63,3.59,3.59,0,0,1,4.48,2.53A3.76,3.76,0,0,1,483.13,380.46Z"/><path class="cls-4" d="M712.63,155.06a3.59,3.59,0,0,1-4.49-2.53,3.76,3.76,0,0,1,2.45-4.63,3.6,3.6,0,0,1,4.49,2.53A3.76,3.76,0,0,1,712.63,155.06Z"/><path class="cls-4" d="M483.13,380.46a3.59,3.59,0,0,1-4.48-2.53,3.75,3.75,0,0,1,2.45-4.63,3.59,3.59,0,0,1,4.48,2.53A3.76,3.76,0,0,1,483.13,380.46Z"/><path class="cls-4" d="M483.13,380.46a3.59,3.59,0,0,1-4.48-2.53,3.75,3.75,0,0,1,2.45-4.63,3.59,3.59,0,0,1,4.48,2.53A3.76,3.76,0,0,1,483.13,380.46Z"/><path class="cls-4" d="M526,133.95a3.6,3.6,0,0,1-4.48-2.53,3.76,3.76,0,0,1,2.45-4.64,3.6,3.6,0,0,1,4.48,2.53A3.75,3.75,0,0,1,526,133.95Z"/><path class="cls-4" d="M269.24,91.31a3.6,3.6,0,0,1-4.48-2.53,3.76,3.76,0,0,1,2.45-4.64,3.6,3.6,0,0,1,4.48,2.53A3.75,3.75,0,0,1,269.24,91.31Z"/><path class="cls-4" d="M526,133.95a3.6,3.6,0,0,1-4.48-2.53,3.76,3.76,0,0,1,2.45-4.64,3.6,3.6,0,0,1,4.48,2.53A3.75,3.75,0,0,1,526,133.95Z"/><path class="cls-4" d="M855.91,76.51A3.59,3.59,0,0,1,851.42,74a3.75,3.75,0,0,1,2.45-4.63,3.59,3.59,0,0,1,4.48,2.53A3.75,3.75,0,0,1,855.91,76.51Z"/><path class="cls-4" d="M526,133.95a3.6,3.6,0,0,1-4.48-2.53,3.76,3.76,0,0,1,2.45-4.64,3.6,3.6,0,0,1,4.48,2.53A3.75,3.75,0,0,1,526,133.95Z"/><path class="cls-4" d="M251,318.66a3.59,3.59,0,0,1-4.48-2.53A3.75,3.75,0,0,1,249,311.5a3.59,3.59,0,0,1,4.48,2.53A3.74,3.74,0,0,1,251,318.66Z"/><path class="cls-4" d="M526,133.95a3.6,3.6,0,0,1-4.48-2.53,3.76,3.76,0,0,1,2.45-4.64,3.6,3.6,0,0,1,4.48,2.53A3.75,3.75,0,0,1,526,133.95Z"/><path class="cls-4" d="M712.63,155.06a3.59,3.59,0,0,1-4.49-2.53,3.76,3.76,0,0,1,2.45-4.63,3.6,3.6,0,0,1,4.49,2.53A3.76,3.76,0,0,1,712.63,155.06Z"/><path class="cls-4" d="M526,133.95a3.6,3.6,0,0,1-4.48-2.53,3.76,3.76,0,0,1,2.45-4.64,3.6,3.6,0,0,1,4.48,2.53A3.75,3.75,0,0,1,526,133.95Z"/><path class="cls-4" d="M712.63,155.06a3.59,3.59,0,0,1-4.49-2.53,3.76,3.76,0,0,1,2.45-4.63,3.6,3.6,0,0,1,4.49,2.53A3.76,3.76,0,0,1,712.63,155.06Z"/><path class="cls-4" d="M526,133.95a3.6,3.6,0,0,1-4.48-2.53,3.76,3.76,0,0,1,2.45-4.64,3.6,3.6,0,0,1,4.48,2.53A3.75,3.75,0,0,1,526,133.95Z"/><path class="cls-4" d="M855.91,76.51A3.59,3.59,0,0,1,851.42,74a3.75,3.75,0,0,1,2.45-4.63,3.59,3.59,0,0,1,4.48,2.53A3.75,3.75,0,0,1,855.91,76.51Z"/><path class="cls-4" d="M712.63,155.06a3.59,3.59,0,0,1-4.49-2.53,3.76,3.76,0,0,1,2.45-4.63,3.6,3.6,0,0,1,4.49,2.53A3.76,3.76,0,0,1,712.63,155.06Z"/><path class="cls-4" d="M712.63,155.06a3.59,3.59,0,0,1-4.49-2.53,3.76,3.76,0,0,1,2.45-4.63,3.6,3.6,0,0,1,4.49,2.53A3.76,3.76,0,0,1,712.63,155.06Z"/><path class="cls-4" d="M483.13,380.46a3.59,3.59,0,0,1-4.48-2.53,3.75,3.75,0,0,1,2.45-4.63,3.59,3.59,0,0,1,4.48,2.53A3.76,3.76,0,0,1,483.13,380.46Z"/><path class="cls-4" d="M175.4,489.53a3.6,3.6,0,0,1-4.48-2.53,3.75,3.75,0,0,1,2.45-4.63,3.59,3.59,0,0,1,4.48,2.53A3.76,3.76,0,0,1,175.4,489.53Z"/><path class="cls-4" d="M250.21,408.42a3.59,3.59,0,0,1-4.49-2.53,3.76,3.76,0,0,1,2.45-4.63,3.6,3.6,0,0,1,4.48,2.53A3.75,3.75,0,0,1,250.21,408.42Z"/><path class="cls-4" d="M175.4,489.53a3.6,3.6,0,0,1-4.48-2.53,3.75,3.75,0,0,1,2.45-4.63,3.59,3.59,0,0,1,4.48,2.53A3.76,3.76,0,0,1,175.4,489.53Z"/><path class="cls-4" d="M251,318.66a3.59,3.59,0,0,1-4.48-2.53A3.75,3.75,0,0,1,249,311.5a3.59,3.59,0,0,1,4.48,2.53A3.74,3.74,0,0,1,251,318.66Z"/><path class="cls-4" d="M175.4,489.53a3.6,3.6,0,0,1-4.48-2.53,3.75,3.75,0,0,1,2.45-4.63,3.59,3.59,0,0,1,4.48,2.53A3.76,3.76,0,0,1,175.4,489.53Z"/><path class="cls-4" d="M250.21,408.42a3.59,3.59,0,0,1-4.49-2.53,3.76,3.76,0,0,1,2.45-4.63,3.6,3.6,0,0,1,4.48,2.53A3.75,3.75,0,0,1,250.21,408.42Z"/><path class="cls-4" d="M76.26,87.68a3.6,3.6,0,0,1-4.48-2.53,3.75,3.75,0,0,1,2.45-4.63A3.59,3.59,0,0,1,78.71,83,3.75,3.75,0,0,1,76.26,87.68Z"/><path class="cls-4" d="M83.19,85.58A3.6,3.6,0,0,1,78.71,83a3.76,3.76,0,0,1,2.45-4.64,3.6,3.6,0,0,1,4.48,2.53A3.75,3.75,0,0,1,83.19,85.58Z"/><path class="cls-4" d="M251,318.66a3.59,3.59,0,0,1-4.48-2.53A3.75,3.75,0,0,1,249,311.5a3.59,3.59,0,0,1,4.48,2.53A3.74,3.74,0,0,1,251,318.66Z"/><path class="cls-4" d="M727.44,419.09a3.6,3.6,0,0,1-4.48-2.53,3.75,3.75,0,0,1,2.45-4.63,3.59,3.59,0,0,1,4.48,2.53A3.75,3.75,0,0,1,727.44,419.09Z"/><path class="cls-4" d="M526,133.95a3.6,3.6,0,0,1-4.48-2.53,3.76,3.76,0,0,1,2.45-4.64,3.6,3.6,0,0,1,4.48,2.53A3.75,3.75,0,0,1,526,133.95Z"/><path class="cls-4" d="M727.44,419.09a3.6,3.6,0,0,1-4.48-2.53,3.75,3.75,0,0,1,2.45-4.63,3.59,3.59,0,0,1,4.48,2.53A3.75,3.75,0,0,1,727.44,419.09Z"/><path class="cls-4" d="M483.13,380.46a3.59,3.59,0,0,1-4.48-2.53,3.75,3.75,0,0,1,2.45-4.63,3.59,3.59,0,0,1,4.48,2.53A3.76,3.76,0,0,1,483.13,380.46Z"/><path class="cls-4" d="M727.44,419.09a3.6,3.6,0,0,1-4.48-2.53,3.75,3.75,0,0,1,2.45-4.63,3.59,3.59,0,0,1,4.48,2.53A3.75,3.75,0,0,1,727.44,419.09Z"/><path class="cls-4" d="M855.91,76.51A3.59,3.59,0,0,1,851.42,74a3.75,3.75,0,0,1,2.45-4.63,3.59,3.59,0,0,1,4.48,2.53A3.75,3.75,0,0,1,855.91,76.51Z"/><path class="cls-4" d="M727.44,419.09a3.6,3.6,0,0,1-4.48-2.53,3.75,3.75,0,0,1,2.45-4.63,3.59,3.59,0,0,1,4.48,2.53A3.75,3.75,0,0,1,727.44,419.09Z"/><path class="cls-4" d="M727.44,419.09a3.6,3.6,0,0,1-4.48-2.53,3.75,3.75,0,0,1,2.45-4.63,3.59,3.59,0,0,1,4.48,2.53A3.75,3.75,0,0,1,727.44,419.09Z"/><path class="cls-4" d="M712.63,155.06a3.59,3.59,0,0,1-4.49-2.53,3.76,3.76,0,0,1,2.45-4.63,3.6,3.6,0,0,1,4.49,2.53A3.76,3.76,0,0,1,712.63,155.06Z"/><path class="cls-4" d="M727.44,419.09a3.6,3.6,0,0,1-4.48-2.53,3.75,3.75,0,0,1,2.45-4.63,3.59,3.59,0,0,1,4.48,2.53A3.75,3.75,0,0,1,727.44,419.09Z"/><path class="cls-4" d="M712.63,155.06a3.59,3.59,0,0,1-4.49-2.53,3.76,3.76,0,0,1,2.45-4.63,3.6,3.6,0,0,1,4.49,2.53A3.76,3.76,0,0,1,712.63,155.06Z"/><path class="cls-4" d="M727.44,419.09a3.6,3.6,0,0,1-4.48-2.53,3.75,3.75,0,0,1,2.45-4.63,3.59,3.59,0,0,1,4.48,2.53A3.75,3.75,0,0,1,727.44,419.09Z"/><path class="cls-4" d="M855.91,76.51A3.59,3.59,0,0,1,851.42,74a3.75,3.75,0,0,1,2.45-4.63,3.59,3.59,0,0,1,4.48,2.53A3.75,3.75,0,0,1,855.91,76.51Z"/><path class="cls-4" d="M855.91,76.51A3.59,3.59,0,0,1,851.42,74a3.75,3.75,0,0,1,2.45-4.63,3.59,3.59,0,0,1,4.48,2.53A3.75,3.75,0,0,1,855.91,76.51Z"/></g></g><g class="cls-5"><g class="cls-3"><polygon class="cls-4" points="217.68 144.53 217.56 143.82 421.14 105.31 421.27 106.01 217.68 144.53"/><polygon class="cls-4" points="217.68 144.53 217.56 143.82 421.14 105.31 421.27 106.01 217.68 144.53"/><polygon class="cls-4" points="421.55 105.69 420.86 105.64 426.18 18.41 426.87 18.46 421.55 105.69"/><polygon class="cls-4" points="217.79 144.48 217.44 143.86 426.35 18.13 426.7 18.74 217.79 144.48"/><polygon class="cls-4" points="217.79 144.48 217.44 143.86 426.35 18.13 426.7 18.74 217.79 144.48"/><polygon class="cls-4" points="361.09 65.91 360.69 65.32 426.32 18.14 426.72 18.73 361.09 65.91"/><polygon class="cls-4" points="421.02 105.96 360.7 65.92 361.08 65.32 421.39 105.36 421.02 105.96"/><polygon class="cls-4" points="217.78 144.49 217.46 143.86 360.73 65.3 361.05 65.93 217.78 144.49"/><polygon class="cls-4" points="217.78 144.49 217.46 143.86 360.73 65.3 361.05 65.93 217.78 144.49"/><polygon class="cls-4" points="0 358.39 217.85 144.43 217.38 143.91 0 357.4 0 358.39"/><polygon class="cls-4" points="0 358.39 217.85 144.43 217.38 143.91 0 357.4 0 358.39"/><polygon class="cls-4" points="0 303.22 31.31 123.12 30.63 122.99 0 299.18 0 303.22"/><polygon class="cls-4" points="0 117.55 0 118.28 30.91 123.41 31.02 122.7 0 117.55"/><polygon class="cls-4" points="31.03 123.41 30.91 122.7 360.83 65.26 360.95 65.97 31.03 123.41"/><polygon class="cls-4" points="0 144.29 31.16 123.36 30.78 122.75 0 143.44 0 144.29"/><polygon class="cls-4" points="217.58 144.53 30.93 123.41 31.01 122.7 217.66 143.82 217.58 144.53"/><polygon class="cls-4" points="217.58 144.53 30.93 123.41 31.01 122.7 217.66 143.82 217.58 144.53"/><polygon class="cls-4" points="404.9 367.42 360.55 65.67 361.23 65.56 405.58 367.31 404.9 367.42"/><polygon class="cls-4" points="405.59 367.39 404.9 367.34 426.18 18.41 426.86 18.46 405.59 367.39"/><polygon class="cls-4" points="405.59 367.39 404.9 367.34 420.86 105.64 421.55 105.69 405.59 367.39"/><polygon class="cls-4" points="404.98 367.6 217.36 144.41 217.88 143.94 405.5 367.13 404.98 367.6"/><polygon class="cls-4" points="404.98 367.6 217.36 144.41 217.88 143.94 405.5 367.13 404.98 367.6"/><polygon class="cls-4" points="232.5 408.55 232.35 407.85 405.17 367.01 405.32 367.71 232.5 408.55"/><polygon class="cls-4" points="232.15 408.41 30.69 123.27 31.25 122.84 232.71 407.99 232.15 408.41"/><polygon class="cls-4" points="0 371.09 0 371.81 232.38 408.55 232.48 407.84 0 371.09"/><polygon class="cls-4" points="232.75 408.33 232.1 408.07 360.57 65.49 361.21 65.75 232.75 408.33"/><polygon class="cls-4" points="232.72 408.39 232.14 408 420.91 105.47 421.49 105.86 232.72 408.39"/><rect class="cls-4" x="224.68" y="143.96" width="0.69" height="264.44" transform="translate(-15.11 13.04) rotate(-3.21)"/><rect class="cls-4" x="224.68" y="143.96" width="0.69" height="264.44" transform="translate(-15.11 13.04) rotate(-3.21)"/><polygon class="cls-4" points="862.49 147.17 603.16 3.42 602.83 4.05 862.49 147.98 862.49 147.17"/><polygon class="cls-4" points="360.98 65.96 360.81 65.27 602.91 3.38 603.08 4.08 360.98 65.96"/><rect class="cls-4" x="426.22" y="10.73" width="177.08" height="0.72" transform="translate(0.86 42.79) rotate(-4.76)"/><polygon class="cls-4" points="421.37 105.98 421.04 105.35 602.83 3.42 603.16 4.05 421.37 105.98"/><polygon class="cls-4" points="598.94 413.91 405.16 367.71 405.32 367.01 599.1 413.21 598.94 413.91"/><polygon class="cls-4" points="598.73 413.74 420.9 105.85 421.5 105.48 599.32 413.38 598.73 413.74"/><polygon class="cls-4" points="599.34 413.69 598.7 413.42 663.95 245.72 664.59 245.99 599.34 413.69"/><polygon class="cls-4" points="663.94 245.94 602.65 3.83 603.33 3.64 664.61 245.76 663.94 245.94"/><polygon class="cls-4" points="862.49 182.01 664.17 245.51 664.37 246.19 862.49 182.76 862.49 182.01"/><polygon class="cls-4" points="405.38 367.69 405.1 367.04 664.12 245.53 664.41 246.17 405.38 367.69"/><polygon class="cls-4" points="664.1 246.16 360.72 65.93 361.06 65.31 664.44 245.54 664.1 246.16"/><polygon class="cls-4" points="664.03 246.11 426.29 18.7 426.76 18.17 664.5 245.59 664.03 246.11"/><polygon class="cls-4" points="664.1 246.16 421.03 105.98 421.37 105.35 664.44 245.54 664.1 246.16"/><polygon class="cls-4" points="862.49 299.22 664.36 245.51 664.18 246.2 862.49 299.96 862.49 299.22"/><polygon class="cls-4" points="862.49 383.85 730.96 427.58 731.17 428.26 862.49 384.6 862.49 383.85"/><polygon class="cls-4" points="730.74 428.05 663.95 245.98 664.59 245.72 731.38 427.8 730.74 428.05"/><polygon class="cls-4" points="731.02 428.27 598.99 413.92 599.06 413.21 731.1 427.56 731.02 428.27"/><polygon class="cls-4" points="862.49 229.04 730.78 427.72 731.35 428.12 862.49 230.31 862.49 229.04"/><polygon class="cls-4" points="731 428.27 405.18 367.72 405.3 367.01 731.12 427.57 731 428.27"/><path class="cls-4" d="M218.64,147.76a3.6,3.6,0,0,1-4.48-2.53,3.76,3.76,0,0,1,2.45-4.63,3.59,3.59,0,0,1,4.48,2.53A3.76,3.76,0,0,1,218.64,147.76Z"/><path class="cls-4" d="M422.22,109.25a3.6,3.6,0,0,1-4.48-2.53,3.76,3.76,0,0,1,2.45-4.63,3.59,3.59,0,0,1,4.48,2.53A3.75,3.75,0,0,1,422.22,109.25Z"/><path class="cls-4" d="M218.64,147.76a3.6,3.6,0,0,1-4.48-2.53,3.76,3.76,0,0,1,2.45-4.63,3.59,3.59,0,0,1,4.48,2.53A3.76,3.76,0,0,1,218.64,147.76Z"/><path class="cls-4" d="M422.22,109.25a3.6,3.6,0,0,1-4.48-2.53,3.76,3.76,0,0,1,2.45-4.63,3.59,3.59,0,0,1,4.48,2.53A3.75,3.75,0,0,1,422.22,109.25Z"/><path class="cls-4" d="M422.22,109.25a3.6,3.6,0,0,1-4.48-2.53,3.76,3.76,0,0,1,2.45-4.63,3.59,3.59,0,0,1,4.48,2.53A3.75,3.75,0,0,1,422.22,109.25Z"/><path class="cls-4" d="M427.54,22a3.59,3.59,0,0,1-4.48-2.53,3.74,3.74,0,0,1,2.45-4.63A3.58,3.58,0,0,1,430,17.38,3.76,3.76,0,0,1,427.54,22Z"/><path class="cls-4" d="M218.64,147.76a3.6,3.6,0,0,1-4.48-2.53,3.76,3.76,0,0,1,2.45-4.63,3.59,3.59,0,0,1,4.48,2.53A3.76,3.76,0,0,1,218.64,147.76Z"/><path class="cls-4" d="M427.54,22a3.59,3.59,0,0,1-4.48-2.53,3.74,3.74,0,0,1,2.45-4.63A3.58,3.58,0,0,1,430,17.38,3.76,3.76,0,0,1,427.54,22Z"/><path class="cls-4" d="M218.64,147.76a3.6,3.6,0,0,1-4.48-2.53,3.76,3.76,0,0,1,2.45-4.63,3.59,3.59,0,0,1,4.48,2.53A3.76,3.76,0,0,1,218.64,147.76Z"/><path class="cls-4" d="M427.54,22a3.59,3.59,0,0,1-4.48-2.53,3.74,3.74,0,0,1,2.45-4.63A3.58,3.58,0,0,1,430,17.38,3.76,3.76,0,0,1,427.54,22Z"/><path class="cls-4" d="M427.54,22a3.59,3.59,0,0,1-4.48-2.53,3.74,3.74,0,0,1,2.45-4.63A3.58,3.58,0,0,1,430,17.38,3.76,3.76,0,0,1,427.54,22Z"/><path class="cls-4" d="M361.91,69.2a3.6,3.6,0,0,1-4.48-2.53A3.75,3.75,0,0,1,359.88,62a3.59,3.59,0,0,1,4.48,2.53A3.76,3.76,0,0,1,361.91,69.2Z"/><path class="cls-4" d="M422.22,109.25a3.6,3.6,0,0,1-4.48-2.53,3.76,3.76,0,0,1,2.45-4.63,3.59,3.59,0,0,1,4.48,2.53A3.75,3.75,0,0,1,422.22,109.25Z"/><path class="cls-4" d="M361.91,69.2a3.6,3.6,0,0,1-4.48-2.53A3.75,3.75,0,0,1,359.88,62a3.59,3.59,0,0,1,4.48,2.53A3.76,3.76,0,0,1,361.91,69.2Z"/><path class="cls-4" d="M218.64,147.76a3.6,3.6,0,0,1-4.48-2.53,3.76,3.76,0,0,1,2.45-4.63,3.59,3.59,0,0,1,4.48,2.53A3.76,3.76,0,0,1,218.64,147.76Z"/><path class="cls-4" d="M361.91,69.2a3.6,3.6,0,0,1-4.48-2.53A3.75,3.75,0,0,1,359.88,62a3.59,3.59,0,0,1,4.48,2.53A3.76,3.76,0,0,1,361.91,69.2Z"/><path class="cls-4" d="M218.64,147.76a3.6,3.6,0,0,1-4.48-2.53,3.76,3.76,0,0,1,2.45-4.63,3.59,3.59,0,0,1,4.48,2.53A3.76,3.76,0,0,1,218.64,147.76Z"/><path class="cls-4" d="M361.91,69.2a3.6,3.6,0,0,1-4.48-2.53A3.75,3.75,0,0,1,359.88,62a3.59,3.59,0,0,1,4.48,2.53A3.76,3.76,0,0,1,361.91,69.2Z"/><path class="cls-4" d="M218.64,147.76a3.6,3.6,0,0,1-4.48-2.53,3.76,3.76,0,0,1,2.45-4.63,3.59,3.59,0,0,1,4.48,2.53A3.76,3.76,0,0,1,218.64,147.76Z"/><path class="cls-4" d="M218.64,147.76a3.6,3.6,0,0,1-4.48-2.53,3.76,3.76,0,0,1,2.45-4.63,3.59,3.59,0,0,1,4.48,2.53A3.76,3.76,0,0,1,218.64,147.76Z"/><path class="cls-4" d="M32,126.64a3.59,3.59,0,0,1-4.48-2.53,3.76,3.76,0,0,1,2.45-4.63A3.59,3.59,0,0,1,34.43,122,3.75,3.75,0,0,1,32,126.64Z"/><path class="cls-4" d="M32,126.64a3.59,3.59,0,0,1-4.48-2.53,3.76,3.76,0,0,1,2.45-4.63A3.59,3.59,0,0,1,34.43,122,3.75,3.75,0,0,1,32,126.64Z"/><path class="cls-4" d="M361.91,69.2a3.6,3.6,0,0,1-4.48-2.53A3.75,3.75,0,0,1,359.88,62a3.59,3.59,0,0,1,4.48,2.53A3.76,3.76,0,0,1,361.91,69.2Z"/><path class="cls-4" d="M32,126.64a3.59,3.59,0,0,1-4.48-2.53,3.76,3.76,0,0,1,2.45-4.63A3.59,3.59,0,0,1,34.43,122,3.75,3.75,0,0,1,32,126.64Z"/><path class="cls-4" d="M32,126.64a3.59,3.59,0,0,1-4.48-2.53,3.76,3.76,0,0,1,2.45-4.63A3.59,3.59,0,0,1,34.43,122,3.75,3.75,0,0,1,32,126.64Z"/><path class="cls-4" d="M218.64,147.76a3.6,3.6,0,0,1-4.48-2.53,3.76,3.76,0,0,1,2.45-4.63,3.59,3.59,0,0,1,4.48,2.53A3.76,3.76,0,0,1,218.64,147.76Z"/><path class="cls-4" d="M32,126.64a3.59,3.59,0,0,1-4.48-2.53,3.76,3.76,0,0,1,2.45-4.63A3.59,3.59,0,0,1,34.43,122,3.75,3.75,0,0,1,32,126.64Z"/><path class="cls-4" d="M218.64,147.76a3.6,3.6,0,0,1-4.48-2.53,3.76,3.76,0,0,1,2.45-4.63,3.59,3.59,0,0,1,4.48,2.53A3.76,3.76,0,0,1,218.64,147.76Z"/><path class="cls-4" d="M32,126.64a3.59,3.59,0,0,1-4.48-2.53,3.76,3.76,0,0,1,2.45-4.63A3.59,3.59,0,0,1,34.43,122,3.75,3.75,0,0,1,32,126.64Z"/><path class="cls-4" d="M361.91,69.2a3.6,3.6,0,0,1-4.48-2.53A3.75,3.75,0,0,1,359.88,62a3.59,3.59,0,0,1,4.48,2.53A3.76,3.76,0,0,1,361.91,69.2Z"/><path class="cls-4" d="M406.26,370.95a3.59,3.59,0,0,1-4.48-2.53,3.75,3.75,0,0,1,2.44-4.63,3.6,3.6,0,0,1,4.48,2.53A3.76,3.76,0,0,1,406.26,370.95Z"/><path class="cls-4" d="M427.54,22a3.59,3.59,0,0,1-4.48-2.53,3.74,3.74,0,0,1,2.45-4.63A3.58,3.58,0,0,1,430,17.38,3.76,3.76,0,0,1,427.54,22Z"/><path class="cls-4" d="M406.26,370.95a3.59,3.59,0,0,1-4.48-2.53,3.75,3.75,0,0,1,2.44-4.63,3.6,3.6,0,0,1,4.48,2.53A3.76,3.76,0,0,1,406.26,370.95Z"/><path class="cls-4" d="M422.22,109.25a3.6,3.6,0,0,1-4.48-2.53,3.76,3.76,0,0,1,2.45-4.63,3.59,3.59,0,0,1,4.48,2.53A3.75,3.75,0,0,1,422.22,109.25Z"/><path class="cls-4" d="M406.26,370.95a3.59,3.59,0,0,1-4.48-2.53,3.75,3.75,0,0,1,2.44-4.63,3.6,3.6,0,0,1,4.48,2.53A3.76,3.76,0,0,1,406.26,370.95Z"/><path class="cls-4" d="M218.64,147.76a3.6,3.6,0,0,1-4.48-2.53,3.76,3.76,0,0,1,2.45-4.63,3.59,3.59,0,0,1,4.48,2.53A3.76,3.76,0,0,1,218.64,147.76Z"/><path class="cls-4" d="M406.26,370.95a3.59,3.59,0,0,1-4.48-2.53,3.75,3.75,0,0,1,2.44-4.63,3.6,3.6,0,0,1,4.48,2.53A3.76,3.76,0,0,1,406.26,370.95Z"/><path class="cls-4" d="M218.64,147.76a3.6,3.6,0,0,1-4.48-2.53,3.76,3.76,0,0,1,2.45-4.63,3.59,3.59,0,0,1,4.48,2.53A3.76,3.76,0,0,1,218.64,147.76Z"/><path class="cls-4" d="M406.26,370.95a3.59,3.59,0,0,1-4.48-2.53,3.75,3.75,0,0,1,2.44-4.63,3.6,3.6,0,0,1,4.48,2.53A3.76,3.76,0,0,1,406.26,370.95Z"/><path class="cls-4" d="M406.26,370.95a3.59,3.59,0,0,1-4.48-2.53,3.75,3.75,0,0,1,2.44-4.63,3.6,3.6,0,0,1,4.48,2.53A3.76,3.76,0,0,1,406.26,370.95Z"/><path class="cls-4" d="M233.45,411.78a3.59,3.59,0,0,1-4.48-2.53,3.75,3.75,0,0,1,2.44-4.63,3.58,3.58,0,0,1,4.48,2.53A3.75,3.75,0,0,1,233.45,411.78Z"/><path class="cls-4" d="M32,126.64a3.59,3.59,0,0,1-4.48-2.53,3.76,3.76,0,0,1,2.45-4.63A3.59,3.59,0,0,1,34.43,122,3.75,3.75,0,0,1,32,126.64Z"/><path class="cls-4" d="M233.45,411.78a3.59,3.59,0,0,1-4.48-2.53,3.75,3.75,0,0,1,2.44-4.63,3.58,3.58,0,0,1,4.48,2.53A3.75,3.75,0,0,1,233.45,411.78Z"/><path class="cls-4" d="M233.45,411.78a3.59,3.59,0,0,1-4.48-2.53,3.75,3.75,0,0,1,2.44-4.63,3.58,3.58,0,0,1,4.48,2.53A3.75,3.75,0,0,1,233.45,411.78Z"/><path class="cls-4" d="M361.91,69.2a3.6,3.6,0,0,1-4.48-2.53A3.75,3.75,0,0,1,359.88,62a3.59,3.59,0,0,1,4.48,2.53A3.76,3.76,0,0,1,361.91,69.2Z"/><path class="cls-4" d="M233.45,411.78a3.59,3.59,0,0,1-4.48-2.53,3.75,3.75,0,0,1,2.44-4.63,3.58,3.58,0,0,1,4.48,2.53A3.75,3.75,0,0,1,233.45,411.78Z"/><path class="cls-4" d="M422.22,109.25a3.6,3.6,0,0,1-4.48-2.53,3.76,3.76,0,0,1,2.45-4.63,3.59,3.59,0,0,1,4.48,2.53A3.75,3.75,0,0,1,422.22,109.25Z"/><path class="cls-4" d="M233.45,411.78a3.59,3.59,0,0,1-4.48-2.53,3.75,3.75,0,0,1,2.44-4.63,3.58,3.58,0,0,1,4.48,2.53A3.75,3.75,0,0,1,233.45,411.78Z"/><path class="cls-4" d="M218.64,147.76a3.6,3.6,0,0,1-4.48-2.53,3.76,3.76,0,0,1,2.45-4.63,3.59,3.59,0,0,1,4.48,2.53A3.76,3.76,0,0,1,218.64,147.76Z"/><path class="cls-4" d="M233.45,411.78a3.59,3.59,0,0,1-4.48-2.53,3.75,3.75,0,0,1,2.44-4.63,3.58,3.58,0,0,1,4.48,2.53A3.75,3.75,0,0,1,233.45,411.78Z"/><path class="cls-4" d="M218.64,147.76a3.6,3.6,0,0,1-4.48-2.53,3.76,3.76,0,0,1,2.45-4.63,3.59,3.59,0,0,1,4.48,2.53A3.76,3.76,0,0,1,218.64,147.76Z"/><path class="cls-4" d="M233.45,411.78a3.59,3.59,0,0,1-4.48-2.53,3.75,3.75,0,0,1,2.44-4.63,3.58,3.58,0,0,1,4.48,2.53A3.75,3.75,0,0,1,233.45,411.78Z"/><path class="cls-4" d="M604,7.31a3.59,3.59,0,0,1-4.48-2.53A3.75,3.75,0,0,1,602,.15a3.59,3.59,0,0,1,4.48,2.53A3.75,3.75,0,0,1,604,7.31Z"/><path class="cls-4" d="M361.91,69.2a3.6,3.6,0,0,1-4.48-2.53A3.75,3.75,0,0,1,359.88,62a3.59,3.59,0,0,1,4.48,2.53A3.76,3.76,0,0,1,361.91,69.2Z"/><path class="cls-4" d="M604,7.31a3.59,3.59,0,0,1-4.48-2.53A3.75,3.75,0,0,1,602,.15a3.59,3.59,0,0,1,4.48,2.53A3.75,3.75,0,0,1,604,7.31Z"/><path class="cls-4" d="M427.54,22a3.59,3.59,0,0,1-4.48-2.53,3.74,3.74,0,0,1,2.45-4.63A3.58,3.58,0,0,1,430,17.38,3.76,3.76,0,0,1,427.54,22Z"/><path class="cls-4" d="M604,7.31a3.59,3.59,0,0,1-4.48-2.53A3.75,3.75,0,0,1,602,.15a3.59,3.59,0,0,1,4.48,2.53A3.75,3.75,0,0,1,604,7.31Z"/><path class="cls-4" d="M422.22,109.25a3.6,3.6,0,0,1-4.48-2.53,3.76,3.76,0,0,1,2.45-4.63,3.59,3.59,0,0,1,4.48,2.53A3.75,3.75,0,0,1,422.22,109.25Z"/><path class="cls-4" d="M604,7.31a3.59,3.59,0,0,1-4.48-2.53A3.75,3.75,0,0,1,602,.15a3.59,3.59,0,0,1,4.48,2.53A3.75,3.75,0,0,1,604,7.31Z"/><path class="cls-4" d="M406.26,370.95a3.59,3.59,0,0,1-4.48-2.53,3.75,3.75,0,0,1,2.44-4.63,3.6,3.6,0,0,1,4.48,2.53A3.76,3.76,0,0,1,406.26,370.95Z"/><path class="cls-4" d="M600,417.14a3.59,3.59,0,0,1-4.48-2.53A3.75,3.75,0,0,1,598,410a3.59,3.59,0,0,1,4.48,2.53A3.75,3.75,0,0,1,600,417.14Z"/><path class="cls-4" d="M422.22,109.25a3.6,3.6,0,0,1-4.48-2.53,3.76,3.76,0,0,1,2.45-4.63,3.59,3.59,0,0,1,4.48,2.53A3.75,3.75,0,0,1,422.22,109.25Z"/><path class="cls-4" d="M600,417.14a3.59,3.59,0,0,1-4.48-2.53A3.75,3.75,0,0,1,598,410a3.59,3.59,0,0,1,4.48,2.53A3.75,3.75,0,0,1,600,417.14Z"/><path class="cls-4" d="M600,417.14a3.59,3.59,0,0,1-4.48-2.53A3.75,3.75,0,0,1,598,410a3.59,3.59,0,0,1,4.48,2.53A3.75,3.75,0,0,1,600,417.14Z"/><path class="cls-4" d="M665.28,249.44a3.6,3.6,0,0,1-4.48-2.53,3.76,3.76,0,0,1,2.45-4.64,3.6,3.6,0,0,1,4.48,2.53A3.76,3.76,0,0,1,665.28,249.44Z"/><path class="cls-4" d="M604,7.31a3.59,3.59,0,0,1-4.48-2.53A3.75,3.75,0,0,1,602,.15a3.59,3.59,0,0,1,4.48,2.53A3.75,3.75,0,0,1,604,7.31Z"/><path class="cls-4" d="M665.28,249.44a3.6,3.6,0,0,1-4.48-2.53,3.76,3.76,0,0,1,2.45-4.64,3.6,3.6,0,0,1,4.48,2.53A3.76,3.76,0,0,1,665.28,249.44Z"/><path class="cls-4" d="M665.28,249.44a3.6,3.6,0,0,1-4.48-2.53,3.76,3.76,0,0,1,2.45-4.64,3.6,3.6,0,0,1,4.48,2.53A3.76,3.76,0,0,1,665.28,249.44Z"/><path class="cls-4" d="M406.26,370.95a3.59,3.59,0,0,1-4.48-2.53,3.75,3.75,0,0,1,2.44-4.63,3.6,3.6,0,0,1,4.48,2.53A3.76,3.76,0,0,1,406.26,370.95Z"/><path class="cls-4" d="M665.28,249.44a3.6,3.6,0,0,1-4.48-2.53,3.76,3.76,0,0,1,2.45-4.64,3.6,3.6,0,0,1,4.48,2.53A3.76,3.76,0,0,1,665.28,249.44Z"/><path class="cls-4" d="M361.91,69.2a3.6,3.6,0,0,1-4.48-2.53A3.75,3.75,0,0,1,359.88,62a3.59,3.59,0,0,1,4.48,2.53A3.76,3.76,0,0,1,361.91,69.2Z"/><path class="cls-4" d="M665.28,249.44a3.6,3.6,0,0,1-4.48-2.53,3.76,3.76,0,0,1,2.45-4.64,3.6,3.6,0,0,1,4.48,2.53A3.76,3.76,0,0,1,665.28,249.44Z"/><path class="cls-4" d="M427.54,22a3.59,3.59,0,0,1-4.48-2.53,3.74,3.74,0,0,1,2.45-4.63A3.58,3.58,0,0,1,430,17.38,3.76,3.76,0,0,1,427.54,22Z"/><path class="cls-4" d="M665.28,249.44a3.6,3.6,0,0,1-4.48-2.53,3.76,3.76,0,0,1,2.45-4.64,3.6,3.6,0,0,1,4.48,2.53A3.76,3.76,0,0,1,665.28,249.44Z"/><path class="cls-4" d="M422.22,109.25a3.6,3.6,0,0,1-4.48-2.53,3.76,3.76,0,0,1,2.45-4.63,3.59,3.59,0,0,1,4.48,2.53A3.75,3.75,0,0,1,422.22,109.25Z"/><path class="cls-4" d="M665.28,249.44a3.6,3.6,0,0,1-4.48-2.53,3.76,3.76,0,0,1,2.45-4.64,3.6,3.6,0,0,1,4.48,2.53A3.76,3.76,0,0,1,665.28,249.44Z"/><path class="cls-4" d="M665.28,249.44a3.6,3.6,0,0,1-4.48-2.53,3.76,3.76,0,0,1,2.45-4.64,3.6,3.6,0,0,1,4.48,2.53A3.76,3.76,0,0,1,665.28,249.44Z"/><path class="cls-4" d="M732.08,431.5A3.59,3.59,0,0,1,727.6,429a3.76,3.76,0,0,1,2.45-4.63,3.6,3.6,0,0,1,4.48,2.53A3.75,3.75,0,0,1,732.08,431.5Z"/><path class="cls-4" d="M665.28,249.44a3.6,3.6,0,0,1-4.48-2.53,3.76,3.76,0,0,1,2.45-4.64,3.6,3.6,0,0,1,4.48,2.53A3.76,3.76,0,0,1,665.28,249.44Z"/><path class="cls-4" d="M732.08,431.5A3.59,3.59,0,0,1,727.6,429a3.76,3.76,0,0,1,2.45-4.63,3.6,3.6,0,0,1,4.48,2.53A3.75,3.75,0,0,1,732.08,431.5Z"/><path class="cls-4" d="M600,417.14a3.59,3.59,0,0,1-4.48-2.53A3.75,3.75,0,0,1,598,410a3.59,3.59,0,0,1,4.48,2.53A3.75,3.75,0,0,1,600,417.14Z"/><path class="cls-4" d="M732.08,431.5A3.59,3.59,0,0,1,727.6,429a3.76,3.76,0,0,1,2.45-4.63,3.6,3.6,0,0,1,4.48,2.53A3.75,3.75,0,0,1,732.08,431.5Z"/><path class="cls-4" d="M732.08,431.5A3.59,3.59,0,0,1,727.6,429a3.76,3.76,0,0,1,2.45-4.63,3.6,3.6,0,0,1,4.48,2.53A3.75,3.75,0,0,1,732.08,431.5Z"/><path class="cls-4" d="M406.26,370.95a3.59,3.59,0,0,1-4.48-2.53,3.75,3.75,0,0,1,2.44-4.63,3.6,3.6,0,0,1,4.48,2.53A3.76,3.76,0,0,1,406.26,370.95Z"/><path class="cls-4" d="M732.08,431.5A3.59,3.59,0,0,1,727.6,429a3.76,3.76,0,0,1,2.45-4.63,3.6,3.6,0,0,1,4.48,2.53A3.75,3.75,0,0,1,732.08,431.5Z"/></g><g class="cls-3"><polygon class="cls-4" points="217.68 144.53 217.56 143.82 421.14 105.31 421.27 106.01 217.68 144.53"/><polygon class="cls-4" points="217.68 144.53 217.56 143.82 421.14 105.31 421.27 106.01 217.68 144.53"/><polygon class="cls-4" points="421.55 105.69 420.86 105.64 426.18 18.41 426.87 18.46 421.55 105.69"/><polygon class="cls-4" points="217.79 144.48 217.44 143.86 426.35 18.13 426.7 18.74 217.79 144.48"/><polygon class="cls-4" points="217.79 144.48 217.44 143.86 426.35 18.13 426.7 18.74 217.79 144.48"/><polygon class="cls-4" points="361.09 65.91 360.69 65.32 426.32 18.14 426.72 18.73 361.09 65.91"/><polygon class="cls-4" points="421.02 105.96 360.7 65.92 361.08 65.32 421.39 105.36 421.02 105.96"/><polygon class="cls-4" points="217.78 144.49 217.46 143.86 360.73 65.3 361.05 65.93 217.78 144.49"/><polygon class="cls-4" points="217.78 144.49 217.46 143.86 360.73 65.3 361.05 65.93 217.78 144.49"/><polygon class="cls-4" points="0 358.39 217.85 144.43 217.38 143.91 0 357.4 0 358.39"/><polygon class="cls-4" points="0 358.39 217.85 144.43 217.38 143.91 0 357.4 0 358.39"/><polygon class="cls-4" points="0 303.22 31.31 123.12 30.63 122.99 0 299.18 0 303.22"/><polygon class="cls-4" points="0 117.55 0 118.28 30.91 123.41 31.02 122.7 0 117.55"/><polygon class="cls-4" points="31.03 123.41 30.91 122.7 360.83 65.26 360.95 65.97 31.03 123.41"/><polygon class="cls-4" points="0 144.29 31.16 123.36 30.78 122.75 0 143.44 0 144.29"/><polygon class="cls-4" points="217.58 144.53 30.93 123.41 31.01 122.7 217.66 143.82 217.58 144.53"/><polygon class="cls-4" points="217.58 144.53 30.93 123.41 31.01 122.7 217.66 143.82 217.58 144.53"/><polygon class="cls-4" points="404.9 367.42 360.55 65.67 361.23 65.56 405.58 367.31 404.9 367.42"/><polygon class="cls-4" points="405.59 367.39 404.9 367.34 426.18 18.41 426.86 18.46 405.59 367.39"/><polygon class="cls-4" points="405.59 367.39 404.9 367.34 420.86 105.64 421.55 105.69 405.59 367.39"/><polygon class="cls-4" points="404.98 367.6 217.36 144.41 217.88 143.94 405.5 367.13 404.98 367.6"/><polygon class="cls-4" points="404.98 367.6 217.36 144.41 217.88 143.94 405.5 367.13 404.98 367.6"/><polygon class="cls-4" points="232.5 408.55 232.35 407.85 405.17 367.01 405.32 367.71 232.5 408.55"/><polygon class="cls-4" points="232.15 408.41 30.69 123.27 31.25 122.84 232.71 407.99 232.15 408.41"/><polygon class="cls-4" points="0 371.09 0 371.81 232.38 408.55 232.48 407.84 0 371.09"/><polygon class="cls-4" points="232.75 408.33 232.1 408.07 360.57 65.49 361.21 65.75 232.75 408.33"/><polygon class="cls-4" points="232.72 408.39 232.14 408 420.91 105.47 421.49 105.86 232.72 408.39"/><rect class="cls-4" x="224.68" y="143.96" width="0.69" height="264.44" transform="translate(-15.11 13.04) rotate(-3.21)"/><rect class="cls-4" x="224.68" y="143.96" width="0.69" height="264.44" transform="translate(-15.11 13.04) rotate(-3.21)"/><polygon class="cls-4" points="862.49 147.17 603.16 3.42 602.83 4.05 862.49 147.98 862.49 147.17"/><polygon class="cls-4" points="360.98 65.96 360.81 65.27 602.91 3.38 603.08 4.08 360.98 65.96"/><rect class="cls-4" x="426.22" y="10.73" width="177.08" height="0.72" transform="translate(0.86 42.79) rotate(-4.76)"/><polygon class="cls-4" points="421.37 105.98 421.04 105.35 602.83 3.42 603.16 4.05 421.37 105.98"/><polygon class="cls-4" points="598.94 413.91 405.16 367.71 405.32 367.01 599.1 413.21 598.94 413.91"/><polygon class="cls-4" points="598.73 413.74 420.9 105.85 421.5 105.48 599.32 413.38 598.73 413.74"/><polygon class="cls-4" points="599.34 413.69 598.7 413.42 663.95 245.72 664.59 245.99 599.34 413.69"/><polygon class="cls-4" points="663.94 245.94 602.65 3.83 603.33 3.64 664.61 245.76 663.94 245.94"/><polygon class="cls-4" points="862.49 182.01 664.17 245.51 664.37 246.19 862.49 182.76 862.49 182.01"/><polygon class="cls-4" points="405.38 367.69 405.1 367.04 664.12 245.53 664.41 246.17 405.38 367.69"/><polygon class="cls-4" points="664.1 246.16 360.72 65.93 361.06 65.31 664.44 245.54 664.1 246.16"/><polygon class="cls-4" points="664.03 246.11 426.29 18.7 426.76 18.17 664.5 245.59 664.03 246.11"/><polygon class="cls-4" points="664.1 246.16 421.03 105.98 421.37 105.35 664.44 245.54 664.1 246.16"/><polygon class="cls-4" points="862.49 299.22 664.36 245.51 664.18 246.2 862.49 299.96 862.49 299.22"/><polygon class="cls-4" points="862.49 383.85 730.96 427.58 731.17 428.26 862.49 384.6 862.49 383.85"/><polygon class="cls-4" points="730.74 428.05 663.95 245.98 664.59 245.72 731.38 427.8 730.74 428.05"/><polygon class="cls-4" points="731.02 428.27 598.99 413.92 599.06 413.21 731.1 427.56 731.02 428.27"/><polygon class="cls-4" points="862.49 229.04 730.78 427.72 731.35 428.12 862.49 230.31 862.49 229.04"/><polygon class="cls-4" points="731 428.27 405.18 367.72 405.3 367.01 731.12 427.57 731 428.27"/><path class="cls-4" d="M218.64,147.76a3.6,3.6,0,0,1-4.48-2.53,3.76,3.76,0,0,1,2.45-4.63,3.59,3.59,0,0,1,4.48,2.53A3.76,3.76,0,0,1,218.64,147.76Z"/><path class="cls-4" d="M422.22,109.25a3.6,3.6,0,0,1-4.48-2.53,3.76,3.76,0,0,1,2.45-4.63,3.59,3.59,0,0,1,4.48,2.53A3.75,3.75,0,0,1,422.22,109.25Z"/><path class="cls-4" d="M218.64,147.76a3.6,3.6,0,0,1-4.48-2.53,3.76,3.76,0,0,1,2.45-4.63,3.59,3.59,0,0,1,4.48,2.53A3.76,3.76,0,0,1,218.64,147.76Z"/><path class="cls-4" d="M422.22,109.25a3.6,3.6,0,0,1-4.48-2.53,3.76,3.76,0,0,1,2.45-4.63,3.59,3.59,0,0,1,4.48,2.53A3.75,3.75,0,0,1,422.22,109.25Z"/><path class="cls-4" d="M422.22,109.25a3.6,3.6,0,0,1-4.48-2.53,3.76,3.76,0,0,1,2.45-4.63,3.59,3.59,0,0,1,4.48,2.53A3.75,3.75,0,0,1,422.22,109.25Z"/><path class="cls-4" d="M427.54,22a3.59,3.59,0,0,1-4.48-2.53,3.74,3.74,0,0,1,2.45-4.63A3.58,3.58,0,0,1,430,17.38,3.76,3.76,0,0,1,427.54,22Z"/><path class="cls-4" d="M218.64,147.76a3.6,3.6,0,0,1-4.48-2.53,3.76,3.76,0,0,1,2.45-4.63,3.59,3.59,0,0,1,4.48,2.53A3.76,3.76,0,0,1,218.64,147.76Z"/><path class="cls-4" d="M427.54,22a3.59,3.59,0,0,1-4.48-2.53,3.74,3.74,0,0,1,2.45-4.63A3.58,3.58,0,0,1,430,17.38,3.76,3.76,0,0,1,427.54,22Z"/><path class="cls-4" d="M218.64,147.76a3.6,3.6,0,0,1-4.48-2.53,3.76,3.76,0,0,1,2.45-4.63,3.59,3.59,0,0,1,4.48,2.53A3.76,3.76,0,0,1,218.64,147.76Z"/><path class="cls-4" d="M427.54,22a3.59,3.59,0,0,1-4.48-2.53,3.74,3.74,0,0,1,2.45-4.63A3.58,3.58,0,0,1,430,17.38,3.76,3.76,0,0,1,427.54,22Z"/><path class="cls-4" d="M427.54,22a3.59,3.59,0,0,1-4.48-2.53,3.74,3.74,0,0,1,2.45-4.63A3.58,3.58,0,0,1,430,17.38,3.76,3.76,0,0,1,427.54,22Z"/><path class="cls-4" d="M361.91,69.2a3.6,3.6,0,0,1-4.48-2.53A3.75,3.75,0,0,1,359.88,62a3.59,3.59,0,0,1,4.48,2.53A3.76,3.76,0,0,1,361.91,69.2Z"/><path class="cls-4" d="M422.22,109.25a3.6,3.6,0,0,1-4.48-2.53,3.76,3.76,0,0,1,2.45-4.63,3.59,3.59,0,0,1,4.48,2.53A3.75,3.75,0,0,1,422.22,109.25Z"/><path class="cls-4" d="M361.91,69.2a3.6,3.6,0,0,1-4.48-2.53A3.75,3.75,0,0,1,359.88,62a3.59,3.59,0,0,1,4.48,2.53A3.76,3.76,0,0,1,361.91,69.2Z"/><path class="cls-4" d="M218.64,147.76a3.6,3.6,0,0,1-4.48-2.53,3.76,3.76,0,0,1,2.45-4.63,3.59,3.59,0,0,1,4.48,2.53A3.76,3.76,0,0,1,218.64,147.76Z"/><path class="cls-4" d="M361.91,69.2a3.6,3.6,0,0,1-4.48-2.53A3.75,3.75,0,0,1,359.88,62a3.59,3.59,0,0,1,4.48,2.53A3.76,3.76,0,0,1,361.91,69.2Z"/><path class="cls-4" d="M218.64,147.76a3.6,3.6,0,0,1-4.48-2.53,3.76,3.76,0,0,1,2.45-4.63,3.59,3.59,0,0,1,4.48,2.53A3.76,3.76,0,0,1,218.64,147.76Z"/><path class="cls-4" d="M361.91,69.2a3.6,3.6,0,0,1-4.48-2.53A3.75,3.75,0,0,1,359.88,62a3.59,3.59,0,0,1,4.48,2.53A3.76,3.76,0,0,1,361.91,69.2Z"/><path class="cls-4" d="M218.64,147.76a3.6,3.6,0,0,1-4.48-2.53,3.76,3.76,0,0,1,2.45-4.63,3.59,3.59,0,0,1,4.48,2.53A3.76,3.76,0,0,1,218.64,147.76Z"/><path class="cls-4" d="M218.64,147.76a3.6,3.6,0,0,1-4.48-2.53,3.76,3.76,0,0,1,2.45-4.63,3.59,3.59,0,0,1,4.48,2.53A3.76,3.76,0,0,1,218.64,147.76Z"/><path class="cls-4" d="M32,126.64a3.59,3.59,0,0,1-4.48-2.53,3.76,3.76,0,0,1,2.45-4.63A3.59,3.59,0,0,1,34.43,122,3.75,3.75,0,0,1,32,126.64Z"/><path class="cls-4" d="M32,126.64a3.59,3.59,0,0,1-4.48-2.53,3.76,3.76,0,0,1,2.45-4.63A3.59,3.59,0,0,1,34.43,122,3.75,3.75,0,0,1,32,126.64Z"/><path class="cls-4" d="M361.91,69.2a3.6,3.6,0,0,1-4.48-2.53A3.75,3.75,0,0,1,359.88,62a3.59,3.59,0,0,1,4.48,2.53A3.76,3.76,0,0,1,361.91,69.2Z"/><path class="cls-4" d="M32,126.64a3.59,3.59,0,0,1-4.48-2.53,3.76,3.76,0,0,1,2.45-4.63A3.59,3.59,0,0,1,34.43,122,3.75,3.75,0,0,1,32,126.64Z"/><path class="cls-4" d="M32,126.64a3.59,3.59,0,0,1-4.48-2.53,3.76,3.76,0,0,1,2.45-4.63A3.59,3.59,0,0,1,34.43,122,3.75,3.75,0,0,1,32,126.64Z"/><path class="cls-4" d="M218.64,147.76a3.6,3.6,0,0,1-4.48-2.53,3.76,3.76,0,0,1,2.45-4.63,3.59,3.59,0,0,1,4.48,2.53A3.76,3.76,0,0,1,218.64,147.76Z"/><path class="cls-4" d="M32,126.64a3.59,3.59,0,0,1-4.48-2.53,3.76,3.76,0,0,1,2.45-4.63A3.59,3.59,0,0,1,34.43,122,3.75,3.75,0,0,1,32,126.64Z"/><path class="cls-4" d="M218.64,147.76a3.6,3.6,0,0,1-4.48-2.53,3.76,3.76,0,0,1,2.45-4.63,3.59,3.59,0,0,1,4.48,2.53A3.76,3.76,0,0,1,218.64,147.76Z"/><path class="cls-4" d="M32,126.64a3.59,3.59,0,0,1-4.48-2.53,3.76,3.76,0,0,1,2.45-4.63A3.59,3.59,0,0,1,34.43,122,3.75,3.75,0,0,1,32,126.64Z"/><path class="cls-4" d="M361.91,69.2a3.6,3.6,0,0,1-4.48-2.53A3.75,3.75,0,0,1,359.88,62a3.59,3.59,0,0,1,4.48,2.53A3.76,3.76,0,0,1,361.91,69.2Z"/><path class="cls-4" d="M406.26,370.95a3.59,3.59,0,0,1-4.48-2.53,3.75,3.75,0,0,1,2.44-4.63,3.6,3.6,0,0,1,4.48,2.53A3.76,3.76,0,0,1,406.26,370.95Z"/><path class="cls-4" d="M427.54,22a3.59,3.59,0,0,1-4.48-2.53,3.74,3.74,0,0,1,2.45-4.63A3.58,3.58,0,0,1,430,17.38,3.76,3.76,0,0,1,427.54,22Z"/><path class="cls-4" d="M406.26,370.95a3.59,3.59,0,0,1-4.48-2.53,3.75,3.75,0,0,1,2.44-4.63,3.6,3.6,0,0,1,4.48,2.53A3.76,3.76,0,0,1,406.26,370.95Z"/><path class="cls-4" d="M422.22,109.25a3.6,3.6,0,0,1-4.48-2.53,3.76,3.76,0,0,1,2.45-4.63,3.59,3.59,0,0,1,4.48,2.53A3.75,3.75,0,0,1,422.22,109.25Z"/><path class="cls-4" d="M406.26,370.95a3.59,3.59,0,0,1-4.48-2.53,3.75,3.75,0,0,1,2.44-4.63,3.6,3.6,0,0,1,4.48,2.53A3.76,3.76,0,0,1,406.26,370.95Z"/><path class="cls-4" d="M218.64,147.76a3.6,3.6,0,0,1-4.48-2.53,3.76,3.76,0,0,1,2.45-4.63,3.59,3.59,0,0,1,4.48,2.53A3.76,3.76,0,0,1,218.64,147.76Z"/><path class="cls-4" d="M406.26,370.95a3.59,3.59,0,0,1-4.48-2.53,3.75,3.75,0,0,1,2.44-4.63,3.6,3.6,0,0,1,4.48,2.53A3.76,3.76,0,0,1,406.26,370.95Z"/><path class="cls-4" d="M218.64,147.76a3.6,3.6,0,0,1-4.48-2.53,3.76,3.76,0,0,1,2.45-4.63,3.59,3.59,0,0,1,4.48,2.53A3.76,3.76,0,0,1,218.64,147.76Z"/><path class="cls-4" d="M406.26,370.95a3.59,3.59,0,0,1-4.48-2.53,3.75,3.75,0,0,1,2.44-4.63,3.6,3.6,0,0,1,4.48,2.53A3.76,3.76,0,0,1,406.26,370.95Z"/><path class="cls-4" d="M406.26,370.95a3.59,3.59,0,0,1-4.48-2.53,3.75,3.75,0,0,1,2.44-4.63,3.6,3.6,0,0,1,4.48,2.53A3.76,3.76,0,0,1,406.26,370.95Z"/><path class="cls-4" d="M233.45,411.78a3.59,3.59,0,0,1-4.48-2.53,3.75,3.75,0,0,1,2.44-4.63,3.58,3.58,0,0,1,4.48,2.53A3.75,3.75,0,0,1,233.45,411.78Z"/><path class="cls-4" d="M32,126.64a3.59,3.59,0,0,1-4.48-2.53,3.76,3.76,0,0,1,2.45-4.63A3.59,3.59,0,0,1,34.43,122,3.75,3.75,0,0,1,32,126.64Z"/><path class="cls-4" d="M233.45,411.78a3.59,3.59,0,0,1-4.48-2.53,3.75,3.75,0,0,1,2.44-4.63,3.58,3.58,0,0,1,4.48,2.53A3.75,3.75,0,0,1,233.45,411.78Z"/><path class="cls-4" d="M233.45,411.78a3.59,3.59,0,0,1-4.48-2.53,3.75,3.75,0,0,1,2.44-4.63,3.58,3.58,0,0,1,4.48,2.53A3.75,3.75,0,0,1,233.45,411.78Z"/><path class="cls-4" d="M361.91,69.2a3.6,3.6,0,0,1-4.48-2.53A3.75,3.75,0,0,1,359.88,62a3.59,3.59,0,0,1,4.48,2.53A3.76,3.76,0,0,1,361.91,69.2Z"/><path class="cls-4" d="M233.45,411.78a3.59,3.59,0,0,1-4.48-2.53,3.75,3.75,0,0,1,2.44-4.63,3.58,3.58,0,0,1,4.48,2.53A3.75,3.75,0,0,1,233.45,411.78Z"/><path class="cls-4" d="M422.22,109.25a3.6,3.6,0,0,1-4.48-2.53,3.76,3.76,0,0,1,2.45-4.63,3.59,3.59,0,0,1,4.48,2.53A3.75,3.75,0,0,1,422.22,109.25Z"/><path class="cls-4" d="M233.45,411.78a3.59,3.59,0,0,1-4.48-2.53,3.75,3.75,0,0,1,2.44-4.63,3.58,3.58,0,0,1,4.48,2.53A3.75,3.75,0,0,1,233.45,411.78Z"/><path class="cls-4" d="M218.64,147.76a3.6,3.6,0,0,1-4.48-2.53,3.76,3.76,0,0,1,2.45-4.63,3.59,3.59,0,0,1,4.48,2.53A3.76,3.76,0,0,1,218.64,147.76Z"/><path class="cls-4" d="M233.45,411.78a3.59,3.59,0,0,1-4.48-2.53,3.75,3.75,0,0,1,2.44-4.63,3.58,3.58,0,0,1,4.48,2.53A3.75,3.75,0,0,1,233.45,411.78Z"/><path class="cls-4" d="M218.64,147.76a3.6,3.6,0,0,1-4.48-2.53,3.76,3.76,0,0,1,2.45-4.63,3.59,3.59,0,0,1,4.48,2.53A3.76,3.76,0,0,1,218.64,147.76Z"/><path class="cls-4" d="M233.45,411.78a3.59,3.59,0,0,1-4.48-2.53,3.75,3.75,0,0,1,2.44-4.63,3.58,3.58,0,0,1,4.48,2.53A3.75,3.75,0,0,1,233.45,411.78Z"/><path class="cls-4" d="M604,7.31a3.59,3.59,0,0,1-4.48-2.53A3.75,3.75,0,0,1,602,.15a3.59,3.59,0,0,1,4.48,2.53A3.75,3.75,0,0,1,604,7.31Z"/><path class="cls-4" d="M361.91,69.2a3.6,3.6,0,0,1-4.48-2.53A3.75,3.75,0,0,1,359.88,62a3.59,3.59,0,0,1,4.48,2.53A3.76,3.76,0,0,1,361.91,69.2Z"/><path class="cls-4" d="M604,7.31a3.59,3.59,0,0,1-4.48-2.53A3.75,3.75,0,0,1,602,.15a3.59,3.59,0,0,1,4.48,2.53A3.75,3.75,0,0,1,604,7.31Z"/><path class="cls-4" d="M427.54,22a3.59,3.59,0,0,1-4.48-2.53,3.74,3.74,0,0,1,2.45-4.63A3.58,3.58,0,0,1,430,17.38,3.76,3.76,0,0,1,427.54,22Z"/><path class="cls-4" d="M604,7.31a3.59,3.59,0,0,1-4.48-2.53A3.75,3.75,0,0,1,602,.15a3.59,3.59,0,0,1,4.48,2.53A3.75,3.75,0,0,1,604,7.31Z"/><path class="cls-4" d="M422.22,109.25a3.6,3.6,0,0,1-4.48-2.53,3.76,3.76,0,0,1,2.45-4.63,3.59,3.59,0,0,1,4.48,2.53A3.75,3.75,0,0,1,422.22,109.25Z"/><path class="cls-4" d="M604,7.31a3.59,3.59,0,0,1-4.48-2.53A3.75,3.75,0,0,1,602,.15a3.59,3.59,0,0,1,4.48,2.53A3.75,3.75,0,0,1,604,7.31Z"/><path class="cls-4" d="M406.26,370.95a3.59,3.59,0,0,1-4.48-2.53,3.75,3.75,0,0,1,2.44-4.63,3.6,3.6,0,0,1,4.48,2.53A3.76,3.76,0,0,1,406.26,370.95Z"/><path class="cls-4" d="M600,417.14a3.59,3.59,0,0,1-4.48-2.53A3.75,3.75,0,0,1,598,410a3.59,3.59,0,0,1,4.48,2.53A3.75,3.75,0,0,1,600,417.14Z"/><path class="cls-4" d="M422.22,109.25a3.6,3.6,0,0,1-4.48-2.53,3.76,3.76,0,0,1,2.45-4.63,3.59,3.59,0,0,1,4.48,2.53A3.75,3.75,0,0,1,422.22,109.25Z"/><path class="cls-4" d="M600,417.14a3.59,3.59,0,0,1-4.48-2.53A3.75,3.75,0,0,1,598,410a3.59,3.59,0,0,1,4.48,2.53A3.75,3.75,0,0,1,600,417.14Z"/><path class="cls-4" d="M600,417.14a3.59,3.59,0,0,1-4.48-2.53A3.75,3.75,0,0,1,598,410a3.59,3.59,0,0,1,4.48,2.53A3.75,3.75,0,0,1,600,417.14Z"/><path class="cls-4" d="M665.28,249.44a3.6,3.6,0,0,1-4.48-2.53,3.76,3.76,0,0,1,2.45-4.64,3.6,3.6,0,0,1,4.48,2.53A3.76,3.76,0,0,1,665.28,249.44Z"/><path class="cls-4" d="M604,7.31a3.59,3.59,0,0,1-4.48-2.53A3.75,3.75,0,0,1,602,.15a3.59,3.59,0,0,1,4.48,2.53A3.75,3.75,0,0,1,604,7.31Z"/><path class="cls-4" d="M665.28,249.44a3.6,3.6,0,0,1-4.48-2.53,3.76,3.76,0,0,1,2.45-4.64,3.6,3.6,0,0,1,4.48,2.53A3.76,3.76,0,0,1,665.28,249.44Z"/><path class="cls-4" d="M665.28,249.44a3.6,3.6,0,0,1-4.48-2.53,3.76,3.76,0,0,1,2.45-4.64,3.6,3.6,0,0,1,4.48,2.53A3.76,3.76,0,0,1,665.28,249.44Z"/><path class="cls-4" d="M406.26,370.95a3.59,3.59,0,0,1-4.48-2.53,3.75,3.75,0,0,1,2.44-4.63,3.6,3.6,0,0,1,4.48,2.53A3.76,3.76,0,0,1,406.26,370.95Z"/><path class="cls-4" d="M665.28,249.44a3.6,3.6,0,0,1-4.48-2.53,3.76,3.76,0,0,1,2.45-4.64,3.6,3.6,0,0,1,4.48,2.53A3.76,3.76,0,0,1,665.28,249.44Z"/><path class="cls-4" d="M361.91,69.2a3.6,3.6,0,0,1-4.48-2.53A3.75,3.75,0,0,1,359.88,62a3.59,3.59,0,0,1,4.48,2.53A3.76,3.76,0,0,1,361.91,69.2Z"/><path class="cls-4" d="M665.28,249.44a3.6,3.6,0,0,1-4.48-2.53,3.76,3.76,0,0,1,2.45-4.64,3.6,3.6,0,0,1,4.48,2.53A3.76,3.76,0,0,1,665.28,249.44Z"/><path class="cls-4" d="M427.54,22a3.59,3.59,0,0,1-4.48-2.53,3.74,3.74,0,0,1,2.45-4.63A3.58,3.58,0,0,1,430,17.38,3.76,3.76,0,0,1,427.54,22Z"/><path class="cls-4" d="M665.28,249.44a3.6,3.6,0,0,1-4.48-2.53,3.76,3.76,0,0,1,2.45-4.64,3.6,3.6,0,0,1,4.48,2.53A3.76,3.76,0,0,1,665.28,249.44Z"/><path class="cls-4" d="M422.22,109.25a3.6,3.6,0,0,1-4.48-2.53,3.76,3.76,0,0,1,2.45-4.63,3.59,3.59,0,0,1,4.48,2.53A3.75,3.75,0,0,1,422.22,109.25Z"/><path class="cls-4" d="M665.28,249.44a3.6,3.6,0,0,1-4.48-2.53,3.76,3.76,0,0,1,2.45-4.64,3.6,3.6,0,0,1,4.48,2.53A3.76,3.76,0,0,1,665.28,249.44Z"/><path class="cls-4" d="M665.28,249.44a3.6,3.6,0,0,1-4.48-2.53,3.76,3.76,0,0,1,2.45-4.64,3.6,3.6,0,0,1,4.48,2.53A3.76,3.76,0,0,1,665.28,249.44Z"/><path class="cls-4" d="M732.08,431.5A3.59,3.59,0,0,1,727.6,429a3.76,3.76,0,0,1,2.45-4.63,3.6,3.6,0,0,1,4.48,2.53A3.75,3.75,0,0,1,732.08,431.5Z"/><path class="cls-4" d="M665.28,249.44a3.6,3.6,0,0,1-4.48-2.53,3.76,3.76,0,0,1,2.45-4.64,3.6,3.6,0,0,1,4.48,2.53A3.76,3.76,0,0,1,665.28,249.44Z"/><path class="cls-4" d="M732.08,431.5A3.59,3.59,0,0,1,727.6,429a3.76,3.76,0,0,1,2.45-4.63,3.6,3.6,0,0,1,4.48,2.53A3.75,3.75,0,0,1,732.08,431.5Z"/><path class="cls-4" d="M600,417.14a3.59,3.59,0,0,1-4.48-2.53A3.75,3.75,0,0,1,598,410a3.59,3.59,0,0,1,4.48,2.53A3.75,3.75,0,0,1,600,417.14Z"/><path class="cls-4" d="M732.08,431.5A3.59,3.59,0,0,1,727.6,429a3.76,3.76,0,0,1,2.45-4.63,3.6,3.6,0,0,1,4.48,2.53A3.75,3.75,0,0,1,732.08,431.5Z"/><path class="cls-4" d="M732.08,431.5A3.59,3.59,0,0,1,727.6,429a3.76,3.76,0,0,1,2.45-4.63,3.6,3.6,0,0,1,4.48,2.53A3.75,3.75,0,0,1,732.08,431.5Z"/><path class="cls-4" d="M406.26,370.95a3.59,3.59,0,0,1-4.48-2.53,3.75,3.75,0,0,1,2.44-4.63,3.6,3.6,0,0,1,4.48,2.53A3.76,3.76,0,0,1,406.26,370.95Z"/><path class="cls-4" d="M732.08,431.5A3.59,3.59,0,0,1,727.6,429a3.76,3.76,0,0,1,2.45-4.63,3.6,3.6,0,0,1,4.48,2.53A3.75,3.75,0,0,1,732.08,431.5Z"/></g></g></g></g></g></svg>