<svg xmlns="http://www.w3.org/2000/svg" viewBox="0 0 14.93 14.9"><defs><style></style></defs><title>edit</title><g id="Слой_2" data-name="Слой 2"><g id="Слой_1-2" data-name="Слой 1"><g id="Слой_2-2" data-name="Слой 2"><g id="Слой_1-2-2" data-name="Слой 1-2"><path  d="M13,4.74,10.18,1.91,1.69,10.4l2.83,2.83ZM3.6,14.06l-3,.83A.5.5,0,0,1,0,14.28l.83-3A.5.5,0,0,1,1,11.11l2.8,2.83A.5.5,0,0,1,3.6,14.06ZM14.78,3a.5.5,0,0,0,0-.71h0L12.65.15a.5.5,0,0,0-.71,0h0L10.89,1.21,13.71,4Z" fill="#000"/></g></g></g></g></svg>