<svg xmlns="http://www.w3.org/2000/svg" viewBox="0 0 66 80"><title>lock</title><g id="Слой_2" data-name="Слой 2"><g id="lock"><g id="group"><path d="M33,0A21,21,0,0,0,12,21V34H5a5,5,0,0,0-5,5V75a5,5,0,0,0,5,5H61a5,5,0,0,0,5-5V39a5,5,0,0,0-5-5H54V21A21,21,0,0,0,33,0Zm0,2A18.94,18.94,0,0,1,52,21V34H14V21A18.94,18.94,0,0,1,33,2ZM5,36H61a3,3,0,0,1,3,3V75a3,3,0,0,1-3,3H5a3,3,0,0,1-3-3V39a3,3,0,0,1,3-3ZM33,50a7,7,0,1,0,7,7,7,7,0,0,0-7-7Zm0,2a5,5,0,1,1-5,5,5,5,0,0,1,5-5Z"  fill="#757575"/></g></g></g></svg>