<?xml version="1.0" encoding="iso-8859-1"?>
<!-- Generator: Adobe Illustrator 18.0.0, SVG Export Plug-In . SVG Version: 6.00 Build 0)  -->
<!DOCTYPE svg PUBLIC "-//W3C//DTD SVG 1.1//EN" "http://www.w3.org/Graphics/SVG/1.1/DTD/svg11.dtd">
<svg version="1.1" id="Capa_1" xmlns="http://www.w3.org/2000/svg" xmlns:xlink="http://www.w3.org/1999/xlink" x="0px" y="0px"
	 viewBox="0 0 60 60" style="enable-background:new 0 0 60 60;" xml:space="preserve">
<g>
	<path d="M59.973,26.535l-0.003-0.057l-0.147-0.082L54,20.975V8.997H41.135l-8.593-8c-1.426-1.326-3.659-1.327-5.085,0.001
		l-8.592,7.999H6v11.978l-5.889,5.482L0,26.531v0.03v32.308v1.129h1.129h56.127h1.615h0.449H60v-1.129V27.101v-0.54L59.973,26.535z
		 M32.072,42.987l9.952-5.487L54,30.897v0l4-2.206v28.593l-4.706-2.594L32.072,42.987z M57.31,26.789L54,28.614v-4.907L57.31,26.789
		z M28.819,2.462c0.662-0.615,1.7-0.614,2.36-0.001l7.02,6.536H21.801L28.819,2.462z M8,10.997h8.717h26.566H52v8.116v10.602
		l-18.102,9.982l-3.897,2.149L8,29.715V19.114V10.997z M6,28.612l-3.308-1.824L6,23.707V28.612z M2,57.997V28.691l4,2.206v0
		l17.82,9.825l4.109,2.266l0,0l10.316,5.688l16.907,9.322H2z"/>
	<path d="M27,17.997h6c0.553,0,1-0.447,1-1s-0.447-1-1-1h-6c-0.553,0-1,0.447-1,1S26.447,17.997,27,17.997z"/>
	<path d="M42,30.997h-7c-0.553,0-1,0.447-1,1s0.447,1,1,1h7c0.553,0,1-0.447,1-1S42.553,30.997,42,30.997z"/>
	<path d="M17,24.997h5c0.553,0,1-0.447,1-1s-0.447-1-1-1h-5c-0.553,0-1,0.447-1,1S16.447,24.997,17,24.997z"/>
	<path d="M29,23.997c0,0.553,0.447,1,1,1h8c0.553,0,1-0.447,1-1s-0.447-1-1-1h-8C29.447,22.997,29,23.445,29,23.997z"/>
	<path d="M26,24.997c0.26,0,0.52-0.11,0.71-0.29c0.18-0.19,0.29-0.45,0.29-0.71c0-0.271-0.11-0.521-0.29-0.71
		c-0.37-0.37-1.05-0.37-1.42,0c-0.181,0.189-0.29,0.439-0.29,0.71c0,0.26,0.109,0.52,0.29,0.71
		C25.479,24.887,25.74,24.997,26,24.997z"/>
	<path d="M31,30.997H21c-0.553,0-1,0.447-1,1s0.447,1,1,1h10c0.553,0,1-0.447,1-1S31.553,30.997,31,30.997z"/>
	<path d="M17,32.997c0.26,0,0.52-0.11,0.71-0.29c0.18-0.19,0.29-0.45,0.29-0.71s-0.101-0.51-0.29-0.71c-0.37-0.37-1.04-0.37-1.42,0
		C16.1,31.477,16,31.727,16,31.997c0,0.26,0.109,0.52,0.29,0.71C16.479,32.897,16.74,32.997,17,32.997z"/>
	<path d="M42,24.997c0.26,0,0.52-0.11,0.71-0.29c0.18-0.19,0.29-0.45,0.29-0.71s-0.11-0.521-0.29-0.71c-0.38-0.37-1.05-0.37-1.42,0
		c-0.181,0.189-0.29,0.439-0.29,0.71c0,0.26,0.109,0.52,0.29,0.71C41.479,24.887,41.74,24.997,42,24.997z"/>
</g>
<g>
</g>
<g>
</g>
<g>
</g>
<g>
</g>
<g>
</g>
<g>
</g>
<g>
</g>
<g>
</g>
<g>
</g>
<g>
</g>
<g>
</g>
<g>
</g>
<g>
</g>
<g>
</g>
<g>
</g>
</svg>
